#!OML:ASF F:\VICON\USERDATA\INSTALL\rory3\rory3.ASF
:FULLY-SPECIFIED
:DEGREES
3230
root -1.23979 18.9983 5.42617 1.79914 -63.1347 20.0489
lowerback 13.0367 -4.10818 3.38063
upperback 5.05782 -5.05949 3.8029
thorax -1.8995 -2.58567 2.80208
lowerneck -16.7038 6.1948 -1.08919
upperneck 1.86457 8.48469 -1.46266
head 3.58526 4.09023 0.404725
rclavicle -4.29375e-014 -3.33958e-014
rhumerus 8.82422 14.2844 -66.6823
rradius 72.5825
rwrist -51.9386
rhand -45.5998 333.7
rfingers 7.12502
rthumb -18.3607 -775.453
lclavicle -4.29375e-014 -3.33958e-014
lhumerus 36.7072 -43.2344 73.1613
lradius 41.8745
lwrist 49.2444
lhand -20.6872 40.5036
lfingers 7.12502
lthumb 5.67637 70.4075
rfemur -40.7824 33.6593 -5.85044
rtibia 28.0016
rfoot -10.5572 4.55687
rtoes 4.1379
lfemur -8.41213 7.53029 -22.6562
ltibia 24.7426
lfoot 2.03692 21.0752
ltoes -19.567
3231
root -1.24244 18.9982 5.41788 1.71378 -62.9799 20.1473
lowerback 13.2044 -4.1299 3.40271
upperback 4.96661 -5.06686 3.7894
thorax -2.08845 -2.5878 2.79567
lowerneck -16.5918 6.15004 -1.16345
upperneck 1.75051 8.43674 -1.4836
head 3.52045 4.06721 0.399242
rclavicle 3.49861e-014 2.8625e-014
rhumerus 8.46563 13.882 -66.7926
rradius 73.0878
rwrist -52.0453
rhand -45.6631 334.472
rfingers 7.12502
rthumb -18.4216 -774.676
lclavicle 3.49861e-014 2.8625e-014
lhumerus 37.4845 -43.787 72.055
lradius 41.804
lwrist 46.1212
lhand -21.8392 39.3437
lfingers 7.12502
lthumb 4.56403 69.2746
rfemur -40.7424 33.6627 -5.90345
rtibia 28.0252
rfoot -10.5945 4.38896
rtoes 4.04958
lfemur -8.48683 7.53274 -22.6574
ltibia 24.8143
lfoot 2.08506 20.9217
ltoes -19.2709
3232
root -1.24702 18.9983 5.41257 1.49198 -62.7972 20.4149
lowerback 13.2123 -4.14639 3.33423
upperback 4.97087 -5.09631 3.76286
thorax -2.08448 -2.60222 2.81063
lowerneck -16.7253 6.12012 -1.24942
upperneck 1.75889 8.4116 -1.43832
head 3.54276 4.05439 0.432086
rclavicle -1.19271e-014 1.43125e-014
rhumerus 8.32429 13.4797 -66.8351
rradius 73.3998
rwrist -51.2457
rhand -45.4503 335.684
rfingers 7.12502
rthumb -18.217 -773.483
lclavicle -1.19271e-014 1.43125e-014
lhumerus 38.7618 -44.4628 70.4541
lradius 41.4584
lwrist 40.343
lhand -22.9612 38.0508
lfingers 7.12502
lthumb 3.48056 68.0021
rfemur -40.6742 33.5481 -6.00289
rtibia 28.0561
rfoot -10.636 4.32696
rtoes 4.02156
lfemur -8.5767 7.56005 -22.7516
ltibia 24.9117
lfoot 2.08899 20.6437
ltoes -19.1483
3233
root -1.25204 18.9988 5.40687 1.60335 -62.626 20.3382
lowerback 13.1886 -4.18049 3.47493
upperback 4.96209 -5.12396 3.73822
thorax -2.09439 -2.6138 2.70979
lowerneck -16.796 6.08391 -1.28847
upperneck 1.7287 8.36604 -1.38073
head 3.54098 4.0337 0.455866
rclavicle -3.81667e-014 7.15625e-014
rhumerus 8.19377 13.0577 -67.0551
rradius 73.5455
rwrist -49.6049
rhand -45.1119 337.128
rfingers 7.12502
rthumb -17.8913 -772.069
lclavicle -3.81667e-014 7.15625e-014
lhumerus 40.1705 -45.2646 68.4569
lradius 41.1871
lwrist 32.8207
lhand -23.643 37.2336
lfingers 7.12502
lthumb 2.82209 67.1947
rfemur -40.6386 33.3934 -5.91172
rtibia 28.1073
rfoot -10.6665 4.37752
rtoes 4.14107
lfemur -8.71167 7.6066 -22.6741
ltibia 25.0528
lfoot 2.13753 20.3026
ltoes -19.1341
3234
root -1.25397 18.9989 5.39983 1.99723 -62.3028 19.998
lowerback 13.1186 -4.29531 3.73429
upperback 4.94199 -5.24387 3.77343
thorax -2.09388 -2.67067 2.61653
lowerneck -16.8051 6.10793 -1.22949
upperneck 1.65452 8.3896 -1.46967
head 3.52333 4.04209 0.416961
rclavicle -9.78021e-014 2.22639e-014
rhumerus 8.11247 12.6038 -67.2877
rradius 73.6702
rwrist -48.1434
rhand -44.5526 338.653
rfingers 7.12502
rthumb -17.3531 -770.592
lclavicle -9.78021e-014 2.22639e-014
lhumerus 41.6401 -46.0165 66.2076
lradius 41.1399
lwrist 25.2557
lhand -24.4476 36.6042
lfingers 7.12502
lthumb 2.04509 66.5741
rfemur -40.6327 33.2529 -5.76377
rtibia 28.172
rfoot -10.6996 4.23931
rtoes 4.29881
lfemur -8.9427 7.6256 -22.443
ltibia 25.206
lfoot 2.45147 19.7433
ltoes -19.6033
3235
root -1.25674 18.9953 5.3887 2.1589 -61.9133 19.928
lowerback 12.9894 -4.41333 3.84263
upperback 4.95238 -5.39313 3.78393
thorax -2.0193 -2.74285 2.57825
lowerneck -16.8339 6.10117 -1.22806
upperneck 1.50567 8.37832 -1.52716
head 3.47856 4.03471 0.394174
rclavicle 4.69132e-014 3.18055e-015
rhumerus 8.06758 11.9827 -67.5436
rradius 73.8432
rwrist -47.7368
rhand -43.7771 340.185
rfingers 7.12502
rthumb -16.6066 -769.125
lclavicle 4.69132e-014 3.18055e-015
lhumerus 42.9696 -46.4221 64.4066
lradius 40.7522
lwrist 18.0031
lhand -24.4818 34.5622
lfingers 7.12502
lthumb 2.01205 64.5325
rfemur -40.6193 33.142 -5.79343
rtibia 28.2148
rfoot -10.7662 3.98226
rtoes 4.5966
lfemur -9.21131 7.73562 -22.3087
ltibia 25.3872
lfoot 2.67557 19.0705
ltoes -19.2669
